<?xml version="1.0" standalone="no"?>
<!DOCTYPE svg PUBLIC "-//W3C//DTD SVG 20010904//EN"
 "http://www.w3.org/TR/2001/REC-SVG-20010904/DTD/svg10.dtd">
<svg version="1.0" xmlns="http://www.w3.org/2000/svg"
 width="1720.000000pt" height="219.000000pt" viewBox="0 0 1720.000000 219.000000"
 preserveAspectRatio="xMidYMid meet">

<g transform="translate(0.000000,219.000000) scale(0.100000,-0.100000)"
fill="#000000" stroke="none">
<path d="M8854 1891 c-79 -48 -110 -137 -125 -360 -15 -212 -5 -741 16 -836
21 -98 53 -155 101 -182 40 -23 94 -31 94 -13 0 6 -5 10 -11 10 -5 0 -17 16
-25 35 -21 51 -21 1259 0 1310 8 19 20 35 25 35 6 0 11 5 11 10 0 17 -53 11
-86 -9z"/>
<path d="M11144 1886 c-2 -6 -3 -319 -2 -696 l3 -685 80 0 80 0 3 348 c2 339
3 349 22 354 27 7 27 43 0 43 -19 0 -20 8 -22 322 l-3 321 -78 2 c-51 2 -80
-2 -83 -9z"/>
<path d="M12254 1885 c-2 -5 -3 -318 -2 -695 l3 -685 57 -3 c49 -3 58 0 72 19
13 19 18 20 31 9 12 -10 15 -10 15 4 0 10 -7 24 -15 32 -23 23 -22 719 1 752
14 20 14 22 0 22 -14 0 -16 35 -18 276 l-3 276 -69 2 c-38 0 -70 -3 -72 -9z"/>
<path d="M4740 1831 c0 -5 10 -11 23 -13 l22 -3 3 -657 c2 -646 2 -658 -17
-658 -11 0 -23 -5 -26 -11 -5 -7 9 -9 42 -7 l48 3 3 678 2 677 -50 0 c-27 0
-50 -4 -50 -9z"/>
<path d="M5060 1835 c0 -3 11 -10 25 -15 l25 -10 0 -651 c0 -642 0 -651 -20
-656 -38 -10 -20 -23 33 -22 50 0 51 1 30 16 l-23 15 0 497 c0 273 4 502 9
510 13 20 28 6 34 -31 6 -32 16 -78 36 -168 6 -25 18 -70 27 -100 9 -30 20
-73 24 -95 4 -22 7 95 6 265 -2 217 -7 325 -17 375 l-14 70 -87 3 c-49 1 -88
0 -88 -3z"/>
<path d="M5760 1820 c-46 -24 -84 -66 -99 -109 -6 -19 -11 -89 -11 -156 0
-156 14 -198 110 -340 l75 -110 3 115 c2 73 -1 116 -8 118 -5 2 -10 12 -10 21
0 10 -3 21 -7 25 -31 31 -45 338 -19 401 8 19 20 35 25 35 6 0 11 5 11 10 0
15 -30 10 -70 -10z"/>
<path d="M6357 1783 c-4 -32 -9 -83 -12 -113 l-6 -55 21 39 c15 29 20 59 20
113 0 87 -15 97 -23 16z"/>
<path d="M6876 1820 c-22 -11 -48 -28 -59 -37 -47 -44 -47 -38 -47 -623 0
-583 0 -580 46 -622 30 -26 93 -58 115 -58 20 0 20 1 -5 31 l-26 31 0 619 0
620 25 25 c14 14 25 27 25 29 0 11 -38 3 -74 -15z"/>
<path d="M7474 1821 c-46 -24 -68 -43 -92 -78 l-22 -31 0 -552 c0 -607 -2
-585 62 -633 36 -27 104 -54 113 -45 3 3 -5 18 -19 33 l-26 28 0 618 0 617 31
31 c30 30 30 31 7 30 -13 -1 -37 -9 -54 -18z"/>
<path d="M8066 1820 c-22 -11 -51 -30 -64 -43 -52 -47 -52 -47 -52 -619 0
-509 1 -533 20 -572 19 -41 82 -91 128 -103 30 -7 40 4 19 20 -35 26 -37 61
-37 656 0 608 2 644 41 656 10 4 19 11 19 16 0 15 -32 10 -74 -11z"/>
<path d="M6329 1558 c0 -2 -4 -48 -9 -103 -11 -124 -18 -186 -30 -295 -5 -47
-17 -150 -25 -230 -9 -80 -20 -175 -25 -212 -6 -37 -10 -85 -10 -106 0 -69
-11 -103 -36 -113 -38 -14 -28 -19 39 -18 51 0 58 2 40 11 -21 10 -22 15 -17
107 3 53 10 118 15 144 5 26 9 72 9 101 0 36 5 58 15 66 10 8 12 16 6 19 -10
7 -4 123 20 366 16 177 22 265 15 265 -3 0 -6 -1 -7 -2z"/>
<path d="M12885 1493 c-12 -11 -15 -24 -10 -42 4 -14 10 -66 14 -116 6 -83 8
-90 29 -93 21 -3 22 -1 22 87 0 49 5 93 10 96 14 9 13 58 -2 73 -17 17 -44 15
-63 -5z"/>
<path d="M15288 1499 c-19 -11 -24 -59 -8 -75 5 -5 10 -47 12 -94 3 -79 5 -85
25 -88 21 -3 22 1 26 90 2 51 8 106 12 122 6 23 4 32 -10 43 -22 15 -34 16
-57 2z"/>
<path d="M2062 1488 c-14 -14 -16 -54 -2 -63 6 -3 10 -46 10 -96 0 -88 0 -89
25 -89 25 0 25 1 25 88 0 50 5 93 11 99 6 6 9 23 7 39 -2 24 -8 30 -33 32 -17
2 -36 -3 -43 -10z"/>
<path d="M4463 1493 c-15 -6 -17 -59 -3 -68 6 -3 10 -46 10 -96 0 -88 0 -89
25 -89 25 0 25 1 25 85 0 47 5 94 11 104 7 10 9 30 5 44 -5 21 -12 27 -34 26
-15 0 -33 -3 -39 -6z"/>
<path d="M1872 1457 c-18 -22 11 -56 35 -41 25 15 23 48 -3 52 -11 2 -26 -3
-32 -11z"/>
<path d="M15484 1455 c-8 -21 4 -35 31 -35 26 0 39 22 22 39 -16 16 -47 14
-53 -4z"/>
<path d="M1704 1415 c-8 -21 2 -45 20 -45 7 0 16 7 20 15 8 21 -3 45 -20 45
-8 0 -17 -7 -20 -15z"/>
<path d="M2302 1419 c-29 -11 -38 -53 -18 -84 9 -13 16 -40 16 -60 0 -31 3
-35 25 -35 21 0 25 5 25 29 0 17 9 46 21 66 19 32 20 37 6 59 -18 27 -44 36
-75 25z"/>
<path d="M4238 1416 c-29 -14 -35 -58 -14 -91 9 -13 16 -38 16 -55 0 -25 4
-30 25 -30 22 0 25 4 25 34 0 19 8 48 17 64 31 54 -14 105 -69 78z"/>
<path d="M13098 1394 c-10 -21 -9 -31 5 -57 9 -18 17 -45 19 -62 2 -22 9 -31
26 -33 20 -3 22 1 22 36 0 23 6 45 15 52 18 15 20 61 3 78 -7 7 -27 12 -45 12
-26 0 -36 -6 -45 -26z"/>
<path d="M15034 1395 c-15 -23 -15 -27 2 -52 10 -16 20 -44 24 -63 4 -26 11
-36 28 -38 19 -3 22 1 22 31 0 20 8 49 17 65 14 25 15 35 5 56 -16 37 -74 37
-98 1z"/>
<path d="M15662 1403 c2 -10 13 -19 26 -21 17 -3 22 2 22 17 0 16 -6 21 -26
21 -19 0 -25 -5 -22 -17z"/>
<path d="M9920 1362 c-82 -40 -104 -148 -98 -462 5 -230 15 -281 63 -346 23
-30 100 -73 111 -61 4 3 -1 24 -10 47 -23 58 -24 410 -1 410 8 0 15 6 15 14 0
8 -7 16 -15 20 -13 4 -15 34 -15 180 0 142 3 177 15 190 8 8 15 17 15 20 0 12
-46 5 -80 -12z"/>
<path d="M9322 988 c3 -328 5 -388 19 -418 29 -63 69 -87 133 -82 16 2 17 7
11 45 -4 23 -9 221 -12 440 l-4 397 -75 0 -75 0 3 -382z"/>
<path d="M10332 938 l3 -433 68 -3 67 -3 -2 433 -3 433 -68 3 -67 3 2 -433z"/>
<path d="M10693 1358 c2 -7 37 -190 78 -407 l74 -393 3 373 c1 206 0 389 -3
407 l-6 32 -76 0 c-56 0 -74 -3 -70 -12z"/>
<path d="M11742 988 c3 -328 5 -388 19 -418 29 -63 69 -87 133 -82 16 2 17 7
11 45 -4 23 -9 221 -12 440 l-4 397 -75 0 -75 0 3 -382z"/>
<path d="M1900 1315 c-12 -15 -5 -55 10 -55 40 0 55 41 21 59 -14 8 -22 7 -31
-4z"/>
<path d="M15467 1314 c-4 -4 -7 -16 -7 -26 0 -15 6 -19 28 -16 19 2 27 9 27
23 0 20 -33 33 -48 19z"/>
<path d="M1771 1247 c-15 -19 10 -53 33 -44 21 8 21 43 0 51 -21 8 -20 8 -33
-7z"/>
<path d="M2460 1238 c-26 -29 -25 -59 3 -86 30 -29 62 -28 92 3 30 29 31 45 4
79 -26 33 -70 35 -99 4z"/>
<path d="M14856 1245 c-38 -38 -22 -98 29 -111 56 -14 103 53 71 101 -19 29
-75 35 -100 10z"/>
<path d="M15597 1253 c-4 -3 -7 -15 -7 -25 0 -20 44 -26 55 -8 14 22 -30 52
-48 33z"/>
<path d="M15737 1183 c-13 -12 -7 -33 8 -33 8 0 15 9 15 20 0 20 -11 26 -23
13z"/>
<path d="M2657 1154 c-4 -4 -7 -21 -7 -37 0 -17 -8 -37 -20 -47 -12 -10 -24
-34 -27 -53 -5 -30 -1 -40 22 -61 35 -33 69 -33 102 0 21 21 24 32 20 61 -4
20 -15 45 -26 57 -11 12 -21 34 -23 51 -3 28 -25 44 -41 29z"/>
<path d="M2826 1152 c-3 -3 -6 -58 -6 -122 0 -106 -2 -119 -21 -136 -46 -41
-43 -106 6 -138 33 -22 61 -20 96 5 24 17 29 27 29 63 0 34 -6 48 -30 71 -29
28 -29 30 -32 143 -3 99 -5 115 -20 118 -9 1 -19 -1 -22 -4z"/>
<path d="M3037 1154 c-4 -4 -7 -89 -7 -188 l0 -182 -35 -33 c-45 -42 -49 -95
-9 -135 37 -36 100 -37 134 -1 36 38 32 101 -8 136 l-32 28 -2 188 c-3 160 -5
188 -18 191 -9 1 -19 0 -23 -4z"/>
<path d="M3283 1153 c-10 -4 -13 -55 -13 -213 l0 -209 -27 -21 c-76 -60 -68
-155 16 -190 112 -46 190 115 91 189 l-30 22 0 208 c0 212 -2 226 -37 214z"/>
<path d="M3517 1154 c-4 -4 -7 -89 -7 -190 l0 -182 -36 -36 c-32 -32 -36 -41
-31 -73 9 -54 42 -83 93 -83 64 0 89 26 89 90 0 46 -4 54 -32 78 l-33 27 -2
185 c-3 157 -5 185 -18 188 -9 1 -19 0 -23 -4z"/>
<path d="M3720 1046 l0 -114 -35 -42 c-38 -45 -41 -59 -24 -93 32 -62 91 -73
138 -26 40 40 39 67 -5 120 l-35 43 1 100 c2 131 3 126 -20 126 -19 0 -20 -7
-20 -114z"/>
<path d="M3903 1153 c-7 -3 -13 -17 -13 -33 0 -16 -11 -42 -25 -58 -35 -42
-33 -85 4 -111 38 -27 62 -26 95 4 33 31 34 68 1 107 -14 16 -25 42 -25 58 0
28 -14 41 -37 33z"/>
<path d="M13470 1121 c0 -16 -10 -39 -25 -55 -29 -31 -32 -71 -9 -104 12 -17
25 -22 59 -22 34 0 47 5 59 22 23 33 20 73 -9 104 -15 16 -25 39 -25 55 0 24
-4 29 -25 29 -21 0 -25 -5 -25 -29z"/>
<path d="M13645 1037 l0 -114 -32 -37 c-38 -43 -40 -59 -13 -103 18 -30 24
-33 70 -33 46 0 52 3 70 33 27 44 25 59 -16 108 l-35 42 2 106 c2 105 1 106
-22 109 l-24 3 0 -114z"/>
<path d="M13850 968 l0 -183 -30 -25 c-59 -48 -49 -129 20 -165 26 -13 34 -14
62 -2 42 18 58 37 65 80 4 30 0 40 -31 74 l-36 40 0 182 0 181 -25 0 -25 0 0
-182z"/>
<path d="M14090 943 l0 -208 -37 -31 c-34 -29 -37 -35 -37 -84 0 -46 4 -56 30
-76 40 -33 102 -33 137 0 51 47 47 110 -9 161 l-34 31 0 207 0 207 -25 0 -25
0 0 -207z"/>
<path d="M14330 968 l0 -182 -31 -32 c-25 -26 -32 -41 -32 -73 0 -47 15 -69
60 -88 28 -11 37 -11 67 3 66 32 76 108 21 158 l-35 32 0 182 0 182 -25 0 -25
0 0 -182z"/>
<path d="M14540 1041 c0 -108 0 -110 -30 -143 -23 -25 -30 -42 -30 -74 0 -54
22 -74 83 -74 39 0 49 4 63 26 25 38 22 80 -9 112 -26 27 -27 32 -27 145 l0
117 -25 0 -25 0 0 -109z"/>
<path d="M14710 1119 c0 -21 -9 -40 -25 -55 -29 -27 -33 -68 -9 -102 12 -17
25 -22 58 -22 53 0 71 18 71 73 0 30 -6 43 -23 55 -15 10 -22 24 -22 48 0 30
-3 34 -25 34 -21 0 -25 -5 -25 -31z"/>
<path d="M15537 1115 c-15 -11 -16 -17 -7 -34 13 -26 36 -27 49 -2 15 28 -16
55 -42 36z"/>
<path d="M1829 1104 c-11 -14 -10 -18 5 -30 13 -9 24 -10 37 -3 22 11 24 20 7
37 -16 16 -33 15 -49 -4z"/>
<path d="M1727 997 c-8 -21 8 -39 29 -35 27 5 25 42 -2 46 -12 2 -24 -3 -27
-11z"/>
<path d="M15634 995 c-8 -19 3 -35 26 -35 22 0 35 30 18 42 -20 12 -38 10 -44
-7z"/>
<path d="M1902 971 c-23 -14 -10 -46 18 -46 20 0 25 5 25 25 0 26 -20 36 -43
21z"/>
<path d="M15464 966 c-10 -26 4 -48 28 -44 17 2 23 10 23 28 0 18 -6 26 -23
28 -13 2 -25 -3 -28 -12z"/>
<path d="M5650 751 c0 -160 26 -218 117 -256 56 -24 67 -20 41 16 -21 28 -23
42 -25 187 -2 86 -3 160 -3 165 0 4 -29 7 -65 7 l-65 0 0 -119z"/>
<path d="M10819 294 c-23 -110 -25 -126 -11 -131 31 -12 42 26 42 144 0 62 -1
113 -3 113 -1 0 -14 -57 -28 -126z"/>
</g>
</svg>
