<svg id="visual" viewBox="0 0 960 540" width="960" height="540" xmlns="http://www.w3.org/2000/svg" xmlns:xlink="http://www.w3.org/1999/xlink" version="1.1"><g transform="translate(972.3094842855155 4.8750767431630635)"><path d="M85.6 -153.6C107.5 -135.6 119.5 -105.8 132.1 -78.2C144.7 -50.6 157.8 -25.3 159.6 1C161.3 27.3 151.7 54.7 137 78.6C122.4 102.6 102.7 123.2 79 138.8C55.3 154.5 27.7 165.3 -1.5 167.9C-30.7 170.4 -61.3 164.9 -86.7 150.2C-112.1 135.6 -132.3 111.8 -149.1 85.2C-165.9 58.7 -179.5 29.3 -183.3 -2.2C-187.1 -33.7 -181.2 -67.5 -165.2 -95.5C-149.2 -123.5 -123.1 -145.8 -93.9 -159.5C-64.7 -173.3 -32.3 -178.7 -0.3 -178.2C31.8 -177.8 63.7 -171.6 85.6 -153.6" fill="#BB004B"></path></g></svg>