<svg id="visual" viewBox="0 0 900 600" width="900" height="600" xmlns="http://www.w3.org/2000/svg" xmlns:xlink="http://www.w3.org/1999/xlink" version="1.1"><rect x="0" y="0" width="900" height="600" fill="#FF0066"></rect><g transform="translate(951.1140999482244 26.49789830618637)"><path d="M95.9 -173.2C118.7 -134.6 127.6 -98.5 140.3 -65.5C153 -32.6 169.5 -2.9 171.5 28.8C173.4 60.6 160.8 94.5 139.1 121.7C117.3 148.9 86.6 169.4 51.8 182.3C17.1 195.1 -21.6 200.2 -57.7 191.8C-93.9 183.4 -127.4 161.4 -166.9 134.3C-206.3 107.2 -251.6 75 -267.4 32.3C-283.2 -10.4 -269.4 -63.6 -235.4 -94.8C-201.4 -126.1 -147.2 -135.4 -104.6 -164.9C-62 -194.5 -31 -244.2 2.8 -248.6C36.6 -252.9 73.2 -211.8 95.9 -173.2" fill="#BB004B"></path></g></svg>