<!-- <svg viewBox="0 0 1880 110" xmlns="http://www.w3.org/2000/svg" xmlns:xlink="http://www.w3.org/1999/xlink"><path fill="rgba(47, 73, 94, 1)" d="M 0 0 C 475.5 0 475.5 110 951 110 L 951 110 L 951 0 L 0 0 Z" stroke-width="0"></path> <path fill="rgba(47, 73, 94, 1)" d="M 950 110 C 1415 110 1415 0 1880 0 L 1880 0 L 1880 0 L 950 0 Z" stroke-width="0"></path> </svg> -->
<!-- <svg viewBox="0 0 1880 110" xmlns="http://www.w3.org/2000/svg" xmlns:xlink="http://www.w3.org/1999/xlink"><path fill="rgba(47, 73, 94, 1)" d="M 0 0 C 475.5 0 475.5 110 951 110 L 951 110 L 951 0 L 0 0 Z" stroke-width="0"></path> <path fill="rgba(47, 73, 94, 1)" d="M 950 110 C 1201.5 110 1201.5 110 1453 110 L 1453 110 L 1453 0 L 950 0 Z" stroke-width="0"></path> <path fill="rgba(47, 73, 94, 1)" d="M 1452 110 C 1666 110 1666 0 1880 0 L 1880 0 L 1880 0 L 1452 0 Z" stroke-width="0"></path></svg> -->
<svg xmlns="http://www.w3.org/2000/svg" xmlns:xlink="http://www.w3.org/1999/xlink" viewBox="0 0 1920 798" preserveAspectRatio="none"><defs><radialGradient id="a" cx="51.368%" cy="100%" r="91.998%" fx="51.368%" fy="100%" gradientTransform="matrix(0 -1 .73291 0 -.22 1.514)"><stop offset="0%"/><stop offset="100%"/></radialGradient><path id="b" d="M0 0h1920v750c-321.188 31.797-641.586 47.695-961.194 47.695C639.198 797.695 319.596 781.797 0 750V0z"/></defs><use fill="url(#a)" xlink:href="#b" fill-rule="evenodd"/></svg>
